<?xml version="1.0" encoding="utf-8"?>
<!-- Generator: Adobe Illustrator 24.0.0, SVG Export Plug-In . SVG Version: 6.00 Build 0)  -->
<svg version="1.1" id="Layer_1" xmlns="http://www.w3.org/2000/svg" xmlns:xlink="http://www.w3.org/1999/xlink" x="0px" y="0px"
	 viewBox="0 0 72 72" style="enable-background:new 0 0 72 72;" xml:space="preserve">
<style type="text/css">
	.st0{fill:none;}
	.st1{display:none;opacity:0.56;}
</style>
<title>Asset 33</title>
<rect class="st0" width="72" height="72"/>
<path class="st1" d="M36,17C20,17,7,30,7,46c0,16,13,29,29,29c16,0,29-13,29-29C65,30,52,17,36,17z M36,71c-13.8,0-25-11.2-25-25
	c0-13.8,11.2-25,25-25c13.8,0,25,11.2,25,25C61,59.8,49.8,71,36,71z"/>
<g>
	<path d="M36.3,26c-5.5,0-10,4.5-10,10s4.5,10,10,10s10-4.5,10-10S41.8,26,36.3,26z M36.3,42c-3.3,0-6-2.7-6-6s2.7-6,6-6s6,2.7,6,6
		S39.6,42,36.3,42z"/>
	<path d="M36,17c-11.9,0-22.1,7.1-26.6,17.4c-0.5,1-0.5,2.2,0,3.3C13.9,47.9,24.1,55,36,55c11.9,0,22.1-7.1,26.6-17.4
		c0.5-1,0.5-2.2,0-3.3C58.1,24.1,47.9,17,36,17z M36,51c-10.3,0-19.1-6.2-22.9-15c3.9-8.8,12.7-15,22.9-15c10.3,0,19.1,6.2,22.9,15
		C55.1,44.8,46.3,51,36,51z"/>
</g>
</svg>
